<svg xmlns="http://www.w3.org/2000/svg" xmlns:xlink="http://www.w3.org/1999/xlink" width="500" zoomAndPan="magnify" viewBox="0 0 375 374.999991" height="500" preserveAspectRatio="xMidYMid meet" version="1.0"><path fill="#7322fb" d="M 316.148438 60.605469 C 326.429688 70.585938 335.558594 87.535156 339.152344 101.394531 C 341.597656 110.65625 342.820312 120.78125 341.882812 130.332031 C 341.023438 138.589844 339.441406 144.476562 336.925781 151.585938 C 338.363281 152.949219 339.726562 154.316406 341.09375 155.75 C 343.898438 158.625 346.339844 161.855469 348.640625 165.160156 C 353.242188 171.476562 356.910156 179.375 359.207031 186.773438 C 369.417969 219.375 356.261719 255.925781 331.390625 278.257812 C 319.886719 288.597656 308.601562 294.34375 294.296875 298.21875 C 294.082031 301.667969 293.578125 304.539062 292.28125 308.703125 C 288.183594 321.699219 282.867188 329.457031 274.167969 339.796875 C 269.351562 345.542969 262.089844 350.640625 255.691406 354.589844 C 225.644531 372.972656 182.585938 371.75 154.332031 350.351562 C 150.238281 347.191406 145.0625 342.597656 141.25 337.929688 C 134.636719 340.945312 128.238281 342.09375 120.476562 342.742188 C 101.785156 344.175781 85.539062 339.078125 69.796875 329.382812 C 64.546875 326.226562 60.953125 322.921875 56.425781 318.828125 C 37.015625 301.308594 24.292969 271.363281 27.09375 245.152344 C 27.597656 240.199219 28.246094 235.386719 29.753906 230.648438 C 30.472656 228.566406 31.191406 226.484375 31.984375 224.472656 C 29.109375 221.816406 26.234375 218.585938 24.148438 216 C 17.105469 207.023438 12.429688 198.191406 9.195312 187.277344 C 6.535156 178.300781 5.671875 168.820312 6.464844 159.484375 C 8.117188 139.953125 16.816406 121.355469 29.035156 106.277344 C 39.605469 93.207031 57.71875 81.644531 74.683594 77.480469 C 74.898438 74.105469 75.332031 71.234375 76.625 67.140625 C 80.292969 55.363281 86.402344 44.949219 94.742188 35.902344 C 118.605469 10.125 160.445312 1.722656 193.082031 13.929688 C 200.699219 16.730469 207.960938 20.535156 214.503906 25.492188 C 218.097656 28.21875 221.476562 31.019531 224.496094 34.46875 C 225.429688 35.617188 226.433594 36.765625 227.371094 37.84375 L 228.089844 37.484375 C 230.246094 36.476562 232.617188 35.976562 234.917969 35.328125 C 248.9375 31.882812 263.457031 32.167969 277.257812 36.335938 C 293.722656 41.289062 304 48.902344 316.148438 60.605469 Z M 74.613281 185.480469 L 74.613281 132.558594 L 74.324219 132.773438 L 73.320312 133.851562 L 72.3125 134.855469 L 71.378906 135.933594 L 70.441406 137.082031 L 69.582031 138.160156 L 67.855469 140.457031 L 67.0625 141.675781 L 66.273438 142.898438 L 65.554688 144.117188 L 64.117188 146.703125 L 63.46875 147.996094 L 62.824219 149.359375 L 62.246094 150.652344 L 61.601562 152.019531 L 61.097656 153.453125 L 60.738281 154.316406 L 60.449219 155.25 L 60.164062 156.183594 L 59.875 157.042969 L 59.589844 157.976562 L 59.371094 158.910156 L 58.941406 160.777344 L 58.726562 161.785156 L 58.292969 164.585938 L 58.152344 165.589844 L 58.078125 166.523438 L 58.007812 167.527344 L 57.933594 168.460938 L 57.863281 169.46875 L 57.863281 171.335938 L 57.933594 172.339844 L 57.933594 173.273438 L 58.007812 174.277344 L 58.078125 175.210938 L 58.222656 176.144531 L 58.367188 177.152344 L 58.511719 178.085938 L 58.652344 179.019531 L 58.871094 179.949219 L 59.300781 181.816406 L 59.589844 182.75 L 59.875 183.683594 L 60.019531 184.257812 L 60.234375 184.835938 L 60.523438 185.480469 L 60.738281 186.125 L 61.027344 186.84375 L 61.386719 187.5625 L 61.671875 188.210938 L 62.03125 189 L 62.390625 189.71875 L 62.75 190.433594 L 63.183594 191.226562 L 63.542969 191.941406 L 63.972656 192.734375 L 64.40625 193.449219 L 64.90625 194.242188 L 65.339844 194.960938 L 65.84375 195.675781 L 66.273438 196.394531 L 67.28125 197.832031 L 67.78125 198.476562 L 68.285156 199.125 L 68.863281 199.769531 L 69.363281 200.417969 L 69.867188 200.992188 L 70.441406 201.492188 L 70.945312 202.066406 L 71.519531 202.5 L 72.023438 203 L 72.597656 203.359375 L 73.605469 204.078125 L 75.1875 204.941406 L 76.769531 205.800781 L 78.351562 206.664062 L 79.933594 207.597656 L 81.511719 208.460938 L 83.09375 209.394531 L 84.675781 210.253906 L 86.257812 211.1875 L 87.839844 212.050781 L 89.347656 212.984375 L 90.929688 213.84375 L 94.09375 215.710938 L 95.675781 216.574219 L 97.183594 217.507812 L 98.765625 218.441406 L 100.347656 219.300781 L 101.929688 220.234375 L 103.4375 221.167969 L 105.019531 222.101562 L 106.601562 222.964844 L 108.109375 223.898438 L 109.691406 224.832031 L 111.273438 225.691406 L 112.855469 226.625 L 114.367188 227.558594 L 115.945312 228.421875 L 119.109375 230.289062 L 120.691406 231.152344 L 122.199219 232.085938 L 123.78125 232.945312 L 124.214844 233.160156 L 124.574219 233.449219 L 125.003906 233.664062 L 125.363281 233.878906 L 125.796875 234.09375 L 126.15625 234.308594 L 126.585938 234.527344 L 126.945312 234.742188 L 127.375 235.027344 L 127.734375 235.242188 L 128.167969 235.460938 L 128.527344 235.675781 L 128.957031 235.890625 L 129.316406 236.105469 L 129.75 236.320312 L 130.109375 236.609375 L 130.539062 236.824219 L 130.898438 237.039062 L 131.332031 237.253906 L 131.691406 237.46875 L 132.121094 237.683594 L 132.480469 237.972656 L 132.910156 238.1875 L 133.269531 238.402344 L 133.703125 238.617188 L 134.0625 238.835938 L 134.492188 239.121094 L 135.210938 239.550781 L 135.644531 239.769531 L 136.003906 239.984375 L 136.433594 240.269531 L 136.792969 240.484375 L 137.226562 240.699219 L 137.585938 240.917969 L 138.015625 241.132812 L 138.375 241.347656 L 138.734375 241.632812 L 139.164062 241.851562 L 139.523438 242.066406 L 139.957031 242.28125 L 140.316406 242.496094 L 140.746094 242.710938 L 141.105469 242.925781 L 141.539062 243.214844 L 142.257812 243.644531 L 142.6875 243.859375 L 142.902344 244.003906 L 143.191406 244.148438 L 143.480469 244.363281 L 143.765625 244.578125 L 144.054688 244.792969 L 144.414062 245.007812 L 144.699219 245.152344 L 144.988281 245.367188 L 145.707031 244.9375 L 146.066406 244.792969 L 147.144531 244.148438 L 147.433594 244.003906 L 148.511719 243.359375 L 148.871094 243.214844 L 149.589844 242.785156 L 149.875 242.566406 L 150.238281 242.351562 L 150.597656 242.210938 L 150.957031 241.992188 L 152.035156 241.347656 L 152.320312 241.203125 L 152.679688 240.988281 L 152.753906 240.917969 L 151.316406 240.054688 C 142.113281 234.742188 132.910156 229.425781 123.710938 224.113281 C 110.050781 216.214844 96.464844 208.242188 82.734375 200.558594 C 75.976562 196.824219 74.613281 192.875 74.613281 185.480469 Z M 253.609375 196.179688 L 245.199219 191.296875 L 245.199219 260.019531 C 245.199219 265.1875 245.917969 272.800781 243.257812 277.324219 C 241.027344 281.058594 236.644531 283.210938 233.050781 285.292969 L 184.167969 313.441406 L 184.886719 313.730469 L 186.609375 314.304688 L 188.265625 314.808594 L 189.988281 315.238281 L 191.785156 315.667969 L 193.511719 316.027344 L 195.308594 316.316406 L 197.035156 316.601562 L 200.628906 316.890625 L 202.425781 316.960938 L 204.222656 317.035156 L 206.019531 316.960938 L 207.816406 316.890625 L 209.613281 316.746094 L 211.410156 316.53125 L 213.136719 316.316406 L 214.933594 316.027344 L 216.660156 315.667969 L 218.382812 315.238281 L 220.039062 314.808594 L 221.691406 314.304688 L 223.34375 313.730469 L 224.996094 313.085938 L 226.578125 312.4375 L 227.15625 312.152344 L 227.800781 311.863281 L 228.375 311.574219 L 228.953125 311.289062 L 229.527344 311 L 230.101562 310.714844 L 230.675781 310.425781 L 231.179688 310.140625 L 231.753906 309.851562 L 232.332031 309.492188 L 232.832031 309.207031 L 233.335938 308.847656 L 233.910156 308.558594 L 234.414062 308.199219 L 234.917969 307.914062 L 235.925781 307.195312 L 236.425781 306.835938 L 236.929688 306.476562 L 237.363281 306.117188 L 237.867188 305.6875 L 238.367188 305.328125 L 238.800781 304.96875 L 239.304688 304.539062 L 239.804688 304.109375 L 240.238281 303.675781 L 240.742188 303.246094 L 241.171875 302.816406 L 241.675781 302.382812 L 242.179688 301.953125 L 242.609375 301.449219 L 243.113281 300.949219 L 243.542969 300.515625 L 243.902344 300.085938 L 244.335938 299.65625 L 244.765625 299.152344 L 245.125 298.652344 L 245.484375 298.148438 L 245.917969 297.644531 L 246.277344 297.140625 L 246.636719 296.640625 L 246.996094 296.136719 L 247.355469 295.5625 L 247.714844 295.058594 L 248.792969 293.335938 L 249.078125 292.761719 L 249.4375 292.1875 L 250.015625 291.039062 L 250.300781 290.464844 L 250.589844 289.890625 L 250.875 289.316406 L 251.09375 288.667969 L 251.378906 288.09375 L 251.59375 287.519531 L 251.882812 286.945312 L 252.097656 286.371094 L 252.3125 285.726562 L 252.457031 285.152344 L 252.675781 284.574219 L 252.816406 284 L 253.035156 283.425781 L 253.105469 283.066406 L 253.175781 282.636719 L 253.320312 282.277344 L 253.394531 281.847656 L 253.464844 281.488281 L 253.464844 281.058594 L 253.535156 280.625 L 253.609375 280.265625 L 253.609375 279.835938 L 253.679688 279.40625 L 253.679688 278.113281 L 253.753906 277.683594 L 253.753906 275.097656 L 253.679688 274.667969 L 253.679688 272.152344 L 253.609375 271.722656 Z M 262.164062 155.679688 L 260.582031 154.816406 L 259 153.882812 L 257.488281 152.949219 L 255.910156 152.089844 L 252.746094 150.222656 L 251.164062 149.359375 L 249.65625 148.425781 L 248.074219 147.566406 L 244.910156 145.699219 L 223.777344 133.492188 L 223.417969 133.707031 L 223.128906 133.921875 L 222.050781 134.566406 L 221.691406 134.785156 L 221.332031 135 L 220.972656 135.144531 L 219.894531 135.789062 L 219.605469 136.003906 L 218.886719 136.433594 L 218.816406 136.433594 L 221.546875 138.015625 C 227.65625 141.535156 233.984375 144.980469 239.949219 148.644531 C 252.097656 156.039062 264.679688 162.71875 276.972656 169.96875 C 280.0625 171.765625 283.152344 173.558594 286.246094 175.355469 C 292.859375 179.089844 294.511719 183.109375 294.441406 190.433594 C 294.296875 200.128906 294.441406 209.824219 294.441406 219.589844 L 294.441406 246.015625 L 294.65625 245.800781 L 295.878906 244.507812 L 297.097656 243.144531 L 298.25 241.707031 L 299.398438 240.34375 L 300.476562 238.835938 L 301.484375 237.398438 L 302.492188 235.890625 L 303.425781 234.308594 L 304.289062 232.800781 L 305.152344 231.222656 L 305.941406 229.570312 L 306.660156 227.992188 L 307.378906 226.339844 L 307.953125 224.6875 L 308.527344 222.964844 L 309.03125 221.3125 L 309.535156 219.589844 L 309.894531 217.867188 L 310.253906 216.070312 L 310.46875 214.347656 L 310.6875 212.625 L 310.828125 210.828125 L 310.902344 209.035156 L 310.902344 207.238281 L 310.828125 205.515625 L 310.6875 203.71875 L 310.542969 201.925781 L 310.253906 200.128906 L 309.894531 198.335938 L 309.464844 196.539062 L 308.886719 194.742188 L 308.746094 194.167969 L 308.527344 193.523438 L 308.3125 192.875 L 308.027344 192.230469 L 307.738281 191.585938 L 307.449219 190.867188 L 307.089844 190.21875 L 306.804688 189.5 L 306.371094 188.785156 L 306.011719 187.992188 L 305.652344 187.277344 L 305.222656 186.558594 L 304.792969 185.769531 L 304.359375 185.050781 L 303.855469 184.332031 L 303.425781 183.613281 L 302.417969 182.175781 L 301.988281 181.460938 L 301.414062 180.8125 L 300.910156 180.09375 L 300.40625 179.449219 L 299.902344 178.875 L 299.328125 178.226562 L 298.824219 177.652344 L 298.320312 177.152344 L 297.746094 176.648438 L 297.242188 176.144531 L 296.667969 175.714844 L 296.164062 175.285156 L 295.589844 174.925781 L 295.085938 174.636719 L 293.503906 173.703125 L 291.921875 172.84375 L 290.34375 171.980469 L 288.832031 171.046875 L 287.25 170.183594 L 285.667969 169.25 L 284.089844 168.390625 L 282.507812 167.457031 L 280.925781 166.59375 L 279.414062 165.660156 L 277.832031 164.726562 L 276.253906 163.867188 L 274.671875 162.933594 L 273.089844 162.070312 L 271.578125 161.136719 L 270 160.203125 L 268.417969 159.34375 L 266.835938 158.410156 L 265.253906 157.546875 L 263.746094 156.613281 Z M 230.03125 91.769531 C 235.78125 91.269531 240.523438 94.929688 245.199219 97.660156 L 277.113281 116.042969 C 282.21875 119.058594 287.394531 122 292.570312 125.019531 L 292.28125 123.867188 L 291.996094 122.503906 L 291.5625 121.140625 L 291.203125 119.847656 L 290.703125 118.484375 L 290.269531 117.117188 L 289.695312 115.824219 L 289.121094 114.535156 L 288.546875 113.242188 L 287.25 110.65625 L 286.53125 109.433594 L 285.8125 108.144531 L 285.023438 106.921875 L 284.230469 105.699219 L 283.371094 104.550781 L 282.507812 103.332031 L 281.570312 102.253906 L 280.710938 101.105469 L 279.773438 100.027344 L 278.769531 98.949219 L 277.761719 97.875 L 276.683594 96.867188 L 275.675781 95.863281 L 274.527344 94.859375 L 273.449219 93.925781 L 272.296875 92.992188 L 271.078125 92.058594 L 269.925781 91.195312 L 268.703125 90.335938 L 267.410156 89.542969 L 266.1875 88.753906 L 264.894531 87.964844 L 263.601562 87.316406 L 262.234375 86.601562 L 260.941406 86.027344 L 259.574219 85.449219 L 258.210938 84.875 L 256.84375 84.375 L 255.40625 83.941406 L 254.039062 83.511719 L 252.601562 83.226562 L 251.164062 82.867188 L 249.726562 82.652344 L 248.289062 82.433594 L 246.851562 82.363281 L 245.339844 82.292969 L 243.902344 82.21875 L 242.464844 82.292969 L 242.179688 82.292969 L 241.890625 82.363281 L 240.882812 82.363281 L 240.523438 82.433594 L 240.09375 82.433594 L 239.734375 82.507812 L 239.304688 82.507812 L 238.871094 82.578125 L 238.441406 82.578125 L 238.007812 82.652344 L 237.578125 82.722656 L 237.144531 82.792969 L 236.714844 82.792969 L 236.210938 82.867188 L 235.78125 82.9375 L 235.347656 83.007812 L 234.917969 83.082031 L 234.488281 83.152344 L 234.054688 83.226562 L 233.625 83.296875 L 233.191406 83.367188 L 232.832031 83.511719 L 232.472656 83.585938 L 231.753906 83.726562 L 231.394531 83.871094 L 231.109375 83.941406 L 230.53125 84.230469 L 230.316406 84.300781 L 229.3125 84.875 L 228.304688 85.449219 L 227.226562 86.027344 L 226.21875 86.601562 L 225.214844 87.175781 L 224.136719 87.820312 L 222.121094 88.96875 L 221.117188 89.542969 L 220.109375 90.117188 L 219.03125 90.765625 L 218.023438 91.339844 L 217.019531 91.914062 L 216.011719 92.558594 L 215.003906 93.132812 L 213.925781 93.710938 L 212.921875 94.355469 L 210.90625 95.503906 L 209.902344 96.152344 L 208.894531 96.726562 L 207.816406 97.300781 L 206.8125 97.875 L 205.804688 98.519531 L 204.796875 99.09375 L 203.792969 99.667969 L 202.714844 100.242188 L 201.707031 100.890625 L 200.699219 101.464844 L 199.695312 102.039062 L 198.617188 102.613281 L 197.609375 103.1875 L 196.316406 103.90625 L 195.019531 104.625 L 193.726562 105.414062 L 192.503906 106.132812 L 191.210938 106.851562 L 189.917969 107.566406 L 188.625 108.285156 L 187.328125 109.074219 L 184.742188 110.511719 L 183.519531 111.300781 L 180.933594 112.738281 L 179.636719 113.457031 L 178.34375 114.246094 L 177.121094 114.964844 L 175.828125 115.683594 L 174.535156 116.472656 L 173.238281 117.191406 L 171.945312 117.980469 L 170.722656 118.699219 L 169.429688 119.417969 L 168.136719 120.207031 L 166.84375 120.925781 L 165.621094 121.644531 L 164.324219 122.433594 L 163.03125 123.152344 L 161.738281 123.941406 L 160.515625 124.660156 L 159.222656 125.375 L 157.929688 126.167969 L 156.632812 126.882812 L 156.632812 132.699219 C 158.789062 131.410156 160.949219 130.117188 163.175781 128.824219 C 177.195312 120.492188 191.5 112.59375 205.660156 104.410156 C 210.765625 101.464844 224.925781 92.199219 230.03125 91.769531 Z M 123.78125 187.492188 L 123.78125 116.402344 C 123.78125 113.097656 123.636719 109.792969 123.710938 106.5625 C 123.855469 103.761719 124.140625 101.105469 125.578125 98.664062 C 127.734375 94.859375 132.121094 92.703125 135.714844 90.621094 L 181.652344 64.195312 L 181.363281 64.125 L 180.644531 63.910156 L 179.996094 63.691406 L 179.277344 63.550781 L 178.558594 63.335938 L 175.683594 62.757812 L 174.964844 62.617188 L 174.246094 62.472656 L 173.527344 62.402344 L 172.808594 62.257812 L 172.089844 62.183594 L 170.652344 62.042969 L 169.859375 61.96875 L 169.140625 61.898438 L 168.421875 61.824219 L 167.632812 61.824219 L 166.914062 61.753906 L 166.125 61.753906 L 164.828125 61.683594 L 163.535156 61.753906 L 162.167969 61.753906 L 160.875 61.824219 L 159.507812 61.96875 L 158.144531 62.113281 L 156.777344 62.328125 L 155.414062 62.542969 L 154.046875 62.757812 L 152.609375 63.046875 L 149.875 63.765625 L 148.511719 64.125 L 147.144531 64.554688 L 145.78125 64.984375 L 144.414062 65.488281 L 143.121094 65.992188 L 141.753906 66.566406 L 140.460938 67.140625 L 139.164062 67.714844 L 137.945312 68.359375 L 136.722656 69.078125 L 135.5 69.726562 L 134.277344 70.515625 L 133.128906 71.234375 L 132.050781 72.023438 L 130.972656 72.882812 L 129.894531 73.746094 L 128.886719 74.609375 L 127.953125 75.542969 L 127.015625 76.476562 L 126.15625 77.410156 L 125.652344 77.984375 L 125.21875 78.484375 L 124.789062 78.988281 L 124.355469 79.5625 L 123.925781 80.066406 L 123.566406 80.566406 L 123.136719 81.070312 L 122.777344 81.574219 L 122.34375 82.074219 L 121.625 83.082031 L 121.339844 83.585938 L 120.980469 84.085938 L 120.621094 84.589844 L 120.332031 85.09375 L 119.972656 85.59375 L 119.683594 86.167969 L 119.398438 86.671875 L 119.109375 87.246094 L 118.820312 87.75 L 118.535156 88.324219 L 118.246094 88.824219 L 117.960938 89.402344 L 117.742188 89.976562 L 117.457031 90.550781 L 117.242188 91.195312 L 117.023438 91.769531 L 116.808594 92.417969 L 116.523438 93.0625 L 116.304688 93.710938 L 116.164062 94.355469 L 115.945312 95 L 115.804688 95.359375 L 115.730469 95.792969 L 115.660156 96.152344 L 115.585938 96.507812 L 115.515625 96.941406 L 115.445312 97.300781 L 115.371094 97.730469 L 115.371094 98.160156 L 115.300781 98.59375 L 115.300781 98.949219 L 115.226562 99.382812 L 115.226562 100.242188 L 115.15625 100.675781 L 115.15625 102.828125 L 115.226562 103.257812 L 115.226562 105.34375 L 115.300781 105.773438 L 115.300781 182.609375 Z M 163.824219 210.613281 L 164.109375 210.757812 L 164.324219 210.902344 L 164.613281 211.042969 L 164.828125 211.1875 L 165.117188 211.332031 L 165.402344 211.476562 L 165.621094 211.617188 L 165.90625 211.761719 L 166.125 211.90625 L 166.410156 212.050781 L 166.625 212.265625 L 166.914062 212.410156 L 167.128906 212.550781 L 167.417969 212.695312 L 167.632812 212.839844 L 167.921875 212.984375 L 168.136719 213.125 L 168.421875 213.269531 L 168.710938 213.414062 L 168.925781 213.558594 L 169.214844 213.699219 L 169.429688 213.84375 L 169.71875 213.988281 L 169.933594 214.132812 L 170.21875 214.277344 L 170.507812 214.417969 L 170.722656 214.5625 L 171.011719 214.707031 L 171.226562 214.851562 L 171.515625 214.992188 L 171.730469 215.136719 L 172.019531 215.28125 L 172.234375 215.425781 L 172.519531 215.640625 L 172.808594 215.785156 L 173.023438 215.925781 L 173.3125 216.070312 L 173.527344 216.214844 L 173.816406 216.359375 L 174.03125 216.5 L 174.316406 216.644531 L 174.535156 216.789062 L 174.820312 216.933594 L 175.109375 217.074219 L 175.324219 217.21875 L 175.613281 217.363281 L 175.828125 217.507812 L 176.117188 217.722656 L 176.332031 217.867188 L 176.617188 218.007812 L 176.835938 218.152344 L 177.121094 218.296875 L 177.335938 218.441406 L 177.625 218.585938 L 177.914062 218.726562 L 178.128906 218.871094 L 178.414062 219.015625 L 178.632812 219.160156 L 178.917969 219.375 L 179.277344 219.519531 L 179.566406 219.734375 L 179.851562 219.875 L 180.210938 220.09375 L 180.5 220.234375 L 180.789062 220.449219 L 181.148438 220.59375 L 181.433594 220.808594 L 181.722656 220.953125 L 182.082031 221.097656 L 182.371094 221.3125 L 182.65625 221.457031 L 182.945312 221.671875 L 183.304688 221.816406 L 183.589844 222.03125 L 183.734375 222.101562 L 183.808594 222.101562 L 183.878906 222.175781 L 184.023438 222.246094 L 184.09375 222.316406 L 184.238281 222.390625 L 184.308594 222.460938 L 184.527344 222.460938 L 184.667969 222.390625 L 184.742188 222.316406 L 184.886719 222.246094 L 184.957031 222.175781 L 185.101562 222.101562 L 185.171875 222.101562 L 185.316406 222.03125 L 185.605469 221.816406 L 185.890625 221.671875 L 186.179688 221.527344 L 186.539062 221.3125 L 186.828125 221.167969 L 187.113281 220.953125 L 187.402344 220.808594 L 187.761719 220.667969 L 188.046875 220.449219 L 188.335938 220.308594 L 188.625 220.09375 L 188.984375 219.949219 L 189.269531 219.804688 L 189.558594 219.589844 L 189.84375 219.445312 L 190.132812 219.230469 L 190.636719 218.941406 L 191.140625 218.65625 L 191.644531 218.367188 L 192.144531 218.082031 L 192.648438 217.792969 L 193.152344 217.507812 L 193.65625 217.21875 L 194.160156 216.933594 L 194.660156 216.644531 L 195.164062 216.359375 L 195.667969 216.070312 L 196.171875 215.710938 L 196.675781 215.425781 L 197.179688 215.136719 L 197.679688 214.851562 L 198.183594 214.5625 L 198.472656 214.417969 L 198.6875 214.277344 L 198.976562 214.132812 L 199.191406 213.988281 L 199.476562 213.84375 L 199.695312 213.699219 L 199.980469 213.558594 L 200.195312 213.414062 L 200.484375 213.269531 L 200.699219 213.125 L 200.988281 212.984375 L 201.273438 212.839844 L 201.492188 212.695312 L 201.777344 212.550781 L 201.996094 212.410156 L 202.28125 212.191406 L 202.496094 212.050781 L 202.785156 211.90625 L 203 211.761719 L 203.289062 211.617188 L 203.574219 211.476562 L 203.792969 211.332031 L 204.078125 211.1875 L 204.292969 211.042969 L 204.582031 210.902344 L 204.796875 210.757812 L 205.085938 210.613281 L 205.300781 210.46875 L 205.589844 210.324219 L 205.875 210.183594 L 206.089844 210.039062 L 206.667969 209.75 L 206.953125 209.535156 L 207.3125 209.394531 L 207.601562 209.175781 L 207.890625 209.035156 L 208.25 208.816406 L 208.535156 208.675781 L 208.894531 208.460938 L 209.183594 208.316406 L 209.46875 208.101562 L 209.828125 207.957031 L 210.117188 207.742188 L 210.40625 207.597656 L 210.765625 207.382812 L 211.050781 207.238281 L 211.339844 207.023438 L 211.410156 206.949219 L 211.554688 206.949219 L 211.628906 206.878906 L 211.699219 206.808594 L 211.769531 206.808594 L 211.914062 206.734375 L 211.988281 206.664062 L 212.058594 206.59375 L 212.058594 172.195312 L 211.988281 172.195312 L 211.988281 172.125 L 194.878906 162.285156 L 194.519531 162.070312 L 194.230469 161.925781 L 193.871094 161.710938 L 193.582031 161.566406 L 192.863281 161.136719 L 192.578125 160.992188 L 192.21875 160.777344 L 191.929688 160.632812 L 191.570312 160.417969 L 191.285156 160.203125 L 190.921875 160.058594 L 190.636719 159.84375 L 190.277344 159.699219 L 189.917969 159.484375 L 189.628906 159.269531 L 189.269531 159.125 L 188.984375 158.910156 L 188.625 158.695312 L 188.335938 158.550781 L 187.976562 158.335938 L 187.6875 158.191406 L 187.328125 157.976562 L 187.042969 157.761719 L 186.683594 157.617188 L 186.394531 157.402344 L 186.035156 157.1875 L 185.746094 157.042969 L 185.386719 156.828125 L 185.101562 156.613281 L 184.742188 156.46875 L 184.382812 156.253906 L 177.121094 160.492188 L 176.042969 161.136719 L 175.683594 161.28125 L 175.324219 161.496094 L 175.035156 161.710938 L 174.675781 161.925781 L 174.316406 162.144531 L 173.957031 162.359375 L 173.597656 162.5 L 173.238281 162.71875 L 172.160156 163.363281 L 171.800781 163.507812 L 170.363281 164.367188 L 170.003906 164.511719 L 169.644531 164.726562 L 169.359375 164.941406 L 169 165.160156 L 168.28125 165.589844 L 167.921875 165.734375 L 166.125 166.808594 L 165.765625 167.027344 L 165.476562 167.167969 L 165.261719 167.3125 L 164.972656 167.457031 L 164.683594 167.671875 L 164.398438 167.816406 L 164.109375 167.960938 L 163.824219 168.101562 L 163.535156 168.316406 L 163.320312 168.460938 L 163.03125 168.605469 L 162.746094 168.820312 L 162.167969 169.109375 L 161.882812 169.324219 L 161.59375 169.46875 L 161.378906 169.609375 L 161.089844 169.753906 L 160.804688 169.96875 L 160.226562 170.257812 L 159.941406 170.402344 L 159.652344 170.617188 L 159.367188 170.757812 L 159.078125 170.902344 L 158.863281 171.117188 L 158.574219 171.261719 L 158.289062 171.40625 L 158 171.550781 L 157.710938 171.691406 L 157.425781 171.910156 L 157.136719 172.050781 L 156.851562 172.195312 L 156.851562 206.734375 L 157.066406 206.808594 L 157.28125 206.949219 L 157.496094 207.023438 L 157.640625 207.167969 L 157.855469 207.238281 L 158 207.382812 L 158.214844 207.453125 L 158.359375 207.527344 L 158.648438 207.667969 L 159.078125 207.957031 L 159.367188 208.101562 L 159.582031 208.242188 L 159.867188 208.386719 L 160.085938 208.53125 L 160.300781 208.601562 L 160.589844 208.746094 L 160.804688 208.890625 L 161.089844 209.035156 L 161.308594 209.175781 L 161.59375 209.320312 L 161.808594 209.464844 L 162.027344 209.609375 L 162.3125 209.75 L 162.527344 209.894531 L 163.105469 210.183594 L 163.320312 210.324219 L 163.605469 210.46875 Z M 123.421875 278.113281 L 75.691406 250.539062 L 75.761719 250.96875 L 75.835938 251.402344 L 75.90625 251.902344 L 75.976562 252.335938 L 76.050781 252.765625 L 76.195312 253.195312 L 76.695312 255.351562 L 77.273438 257.503906 L 77.917969 259.585938 L 78.710938 261.667969 L 79.574219 263.75 L 80.507812 265.761719 L 81.511719 267.773438 L 82.589844 269.710938 L 83.8125 271.652344 L 85.035156 273.515625 L 86.402344 275.3125 L 87.765625 277.109375 L 89.207031 278.832031 L 90.714844 280.484375 L 92.296875 282.132812 L 93.949219 283.640625 L 95.675781 285.078125 L 97.398438 286.515625 L 99.269531 287.808594 L 101.066406 289.027344 L 103.007812 290.25 L 104.949219 291.253906 L 106.960938 292.257812 L 108.972656 293.121094 L 111.058594 293.910156 L 113.144531 294.628906 L 115.300781 295.203125 L 117.457031 295.707031 L 119.683594 296.066406 L 121.914062 296.28125 L 124.140625 296.425781 L 126.371094 296.425781 L 127.449219 296.351562 L 128.453125 296.351562 L 129.390625 296.28125 L 130.253906 296.210938 L 131.113281 296.136719 L 131.90625 295.992188 L 132.695312 295.921875 L 134.132812 295.632812 L 134.851562 295.492188 L 135.5 295.347656 L 136.148438 295.132812 L 136.792969 294.917969 L 137.367188 294.699219 L 138.015625 294.484375 L 138.589844 294.269531 L 139.164062 293.984375 L 139.742188 293.765625 L 140.386719 293.480469 L 140.964844 293.121094 L 141.539062 292.835938 L 142.183594 292.476562 L 142.761719 292.117188 L 143.40625 291.757812 L 144.054688 291.398438 L 144.699219 290.96875 L 145.421875 290.535156 L 146.859375 289.675781 L 147.648438 289.171875 L 148.511719 288.667969 L 149.375 288.167969 L 150.019531 287.808594 L 150.667969 287.375 L 151.386719 286.945312 L 152.035156 286.585938 L 152.753906 286.15625 L 153.398438 285.796875 L 154.117188 285.367188 L 154.765625 285.007812 L 155.414062 284.574219 L 156.132812 284.21875 L 156.777344 283.785156 L 157.496094 283.425781 L 158.144531 282.996094 L 158.863281 282.636719 L 159.507812 282.207031 L 160.226562 281.847656 L 160.875 281.488281 L 161.59375 281.058594 L 162.242188 280.699219 L 162.960938 280.265625 L 163.605469 279.910156 L 164.253906 279.476562 L 164.972656 279.117188 L 165.621094 278.6875 L 166.339844 278.328125 L 166.984375 277.96875 L 167.703125 277.539062 L 168.351562 277.179688 L 169.070312 276.75 L 169.71875 276.390625 L 170.4375 276.03125 L 171.082031 275.601562 L 171.800781 275.242188 L 172.449219 274.808594 L 173.167969 274.449219 L 173.816406 274.019531 L 174.535156 273.660156 L 175.179688 273.230469 L 175.898438 272.871094 L 176.546875 272.441406 L 177.265625 272.082031 L 177.914062 271.722656 L 178.632812 271.292969 L 179.277344 270.933594 L 179.996094 270.5 L 180.644531 270.140625 L 181.292969 269.710938 L 182.011719 269.351562 L 182.65625 268.921875 L 183.375 268.5625 L 184.023438 268.132812 L 184.742188 267.773438 L 185.386719 267.34375 L 186.109375 266.984375 L 186.753906 266.550781 L 187.472656 266.191406 L 188.121094 265.761719 L 188.839844 265.402344 L 189.484375 264.972656 L 190.132812 264.613281 L 190.851562 264.183594 L 191.5 263.824219 L 192.21875 263.394531 L 192.863281 263.035156 L 193.222656 262.816406 L 193.511719 262.601562 L 193.871094 262.460938 L 194.230469 262.242188 L 194.519531 262.027344 L 194.878906 261.8125 L 195.164062 261.667969 L 195.882812 261.238281 L 196.171875 261.09375 L 196.53125 260.878906 L 196.820312 260.664062 L 197.179688 260.519531 L 197.539062 260.304688 L 197.824219 260.089844 L 198.183594 259.945312 L 198.472656 259.730469 L 198.832031 259.515625 L 199.117188 259.300781 L 199.476562 259.15625 L 199.835938 258.941406 L 200.125 258.726562 L 200.484375 258.582031 L 200.773438 258.367188 L 201.132812 258.152344 L 201.492188 258.007812 L 201.777344 257.792969 L 202.136719 257.574219 L 202.425781 257.433594 L 202.785156 257.21875 L 203.144531 257 L 203.433594 256.859375 L 203.863281 256.570312 L 204.292969 256.355469 L 204.726562 256.066406 L 205.15625 255.851562 L 205.589844 255.566406 L 206.019531 255.351562 L 206.449219 255.132812 L 206.882812 254.847656 L 207.3125 254.632812 L 207.671875 254.34375 L 208.105469 254.128906 L 208.535156 253.914062 L 208.96875 253.625 L 209.398438 253.410156 L 209.828125 253.125 L 210.261719 252.910156 L 210.476562 252.765625 L 210.691406 252.691406 L 210.90625 252.550781 L 211.195312 252.40625 L 211.410156 252.261719 L 211.628906 252.191406 L 212.058594 251.902344 L 212.058594 243.214844 C 195.667969 252.621094 179.421875 262.386719 162.960938 271.652344 C 159.4375 273.660156 155.914062 275.671875 152.394531 277.683594 C 148.222656 280.125 142.902344 284.074219 138.015625 284.144531 C 132.910156 284.289062 127.59375 280.554688 123.421875 278.113281 Z M 123.421875 278.113281 " fill-opacity="1" fill-rule="evenodd"/><path fill="#fefefe" d="M 156.203125 322.203125 C 159.078125 320.984375 162.527344 318.683594 165.402344 317.105469 L 229.957031 279.910156 C 240.023438 274.09375 238.945312 275.097656 238.945312 260.019531 L 238.945312 172.699219 L 273.015625 192.445312 L 273.015625 284.074219 C 273.015625 289.890625 273.664062 295.921875 272.082031 301.59375 C 269.855469 309.851562 264.75 318.972656 258.785156 325.148438 C 252.097656 331.96875 245.84375 336.207031 237.144531 340.085938 C 210.835938 351.859375 173.671875 346.546875 156.203125 322.203125 Z M 52.328125 230.074219 C 55.5625 231.367188 59.875 234.238281 63.039062 236.035156 L 126.585938 272.726562 C 138.878906 279.980469 137.007812 279.476562 149.300781 272.296875 C 152.753906 270.285156 156.347656 268.277344 159.867188 266.265625 C 181.074219 254.199219 202.136719 241.492188 223.558594 229.570312 L 223.558594 266.191406 C 219.75 267.917969 202.570312 278.113281 197.679688 280.984375 C 188.984375 286.011719 180.355469 291.039062 171.660156 295.992188 C 163.105469 300.875 154.40625 305.902344 145.851562 310.929688 C 133.628906 318.183594 130.539062 321.199219 115.515625 321.558594 C 83.8125 322.417969 55.851562 295.707031 49.453125 265.1875 C 48.160156 258.796875 47.871094 253.050781 48.375 246.589844 C 48.878906 240.125 50.746094 235.960938 52.328125 230.074219 Z M 145.421875 163.722656 C 149.949219 161.425781 154.691406 158.480469 159.078125 155.894531 C 163.535156 153.308594 168.136719 150.796875 172.59375 148.210938 L 182.871094 142.25 C 184.742188 141.101562 184.667969 141.460938 186.46875 142.46875 C 190.921875 145.050781 195.453125 147.710938 199.910156 150.222656 L 220.398438 162.070312 C 221.90625 163.003906 223.34375 163.433594 223.558594 164.296875 L 223.558594 211.90625 C 222.480469 212.910156 206.953125 221.601562 204.007812 223.324219 C 201.851562 224.542969 185.171875 234.382812 184.382812 234.308594 C 183.734375 234.308594 167.058594 224.472656 164.828125 223.25 C 161.59375 221.382812 158.359375 219.445312 155.050781 217.578125 C 152.824219 216.359375 146.859375 213.199219 145.421875 211.90625 Z M 168.855469 243.214844 C 167.273438 244.792969 143.046875 258.652344 139.164062 260.808594 C 136.867188 262.101562 133.847656 259.515625 131.617188 258.152344 C 129.101562 256.714844 126.65625 255.277344 124.140625 253.84375 C 119.179688 250.96875 114.148438 248.097656 109.191406 245.226562 C 89.277344 233.878906 69.507812 221.886719 49.523438 210.828125 C 41.257812 206.304688 33.0625 191.941406 30.1875 183.039062 C 26.015625 170.113281 26.953125 155.609375 31.769531 142.96875 C 40.25 120.710938 57.648438 104.050781 80.792969 97.945312 L 80.792969 185.480469 C 80.792969 190.578125 81.152344 192.519531 85.753906 195.175781 C 96.035156 200.917969 168.640625 242.710938 168.855469 243.214844 Z M 199.765625 132.269531 C 200.773438 131.984375 228.304688 115.96875 229.597656 115.179688 C 231.683594 113.960938 231.394531 114.246094 233.480469 115.46875 L 259.574219 130.546875 C 279.488281 141.964844 299.328125 153.667969 319.242188 164.941406 C 327.433594 169.539062 335.917969 183.613281 338.648438 192.445312 C 346.339844 217.652344 336.707031 243.285156 318.519531 261.09375 C 309.464844 269.925781 300.117188 274.378906 288.183594 277.96875 C 288.183594 258.507812 288.183594 239.050781 288.183594 219.589844 C 288.183594 209.824219 288.042969 200.058594 288.183594 190.363281 C 288.257812 185.265625 287.683594 183.324219 283.152344 180.742188 C 280.0625 178.945312 276.898438 177.152344 273.738281 175.285156 C 261.585938 168.101562 248.792969 161.351562 236.714844 153.957031 C 231.96875 151.011719 200.914062 133.5625 199.765625 132.269531 Z M 145.132812 110.007812 C 162.386719 99.957031 179.710938 89.6875 197.105469 79.921875 C 209.972656 72.667969 223.417969 64.410156 236.066406 57.445312 C 239.949219 55.292969 248.71875 54.5 253.175781 54.214844 C 292.066406 52.203125 334.40625 99.09375 316.363281 145.84375 C 309.25 141.964844 302.132812 137.585938 295.015625 133.5625 C 288.042969 129.613281 280.925781 125.519531 273.953125 121.355469 L 242.105469 103.042969 C 238.871094 101.175781 234.199219 97.660156 230.53125 97.945312 C 227.65625 98.160156 212.417969 107.710938 208.824219 109.792969 C 194.734375 117.980469 180.210938 126.023438 166.339844 134.210938 C 159.582031 138.160156 152.035156 142.824219 145.132812 146.34375 Z M 95.960938 91.269531 C 95.960938 85.523438 95.242188 79.417969 96.898438 73.816406 C 99.773438 64.125 103.796875 58.09375 110.339844 50.625 C 122.417969 36.621094 144.773438 29.152344 162.886719 29.800781 C 173.457031 30.160156 183.160156 32.097656 192.648438 36.910156 C 198.6875 39.996094 209.398438 47.679688 212.5625 53.640625 C 209.542969 55.074219 206.234375 57.230469 203.214844 58.953125 C 200.125 60.675781 197.105469 62.542969 194.015625 64.269531 L 138.878906 96.007812 C 128.597656 101.96875 130.035156 100.816406 130.035156 116.402344 L 130.035156 203.144531 L 95.960938 183.46875 Z M 15.164062 185.550781 C 18.183594 195.820312 22.496094 203.792969 29.035156 212.121094 C 31.550781 215.210938 36.082031 220.234375 39.316406 222.390625 C 35.9375 232.800781 34.644531 233.019531 33.277344 245.800781 C 30.691406 270.070312 42.695312 298.003906 60.667969 314.234375 C 64.980469 318.183594 67.566406 320.765625 73.03125 324.070312 C 87.625 333.046875 102.574219 337.859375 119.972656 336.492188 C 128.957031 335.777344 135.644531 334.410156 143.121094 329.886719 C 146.140625 335.058594 153.328125 341.734375 158.144531 345.398438 C 184.597656 365.433594 224.855469 366.152344 252.457031 349.277344 C 258.136719 345.757812 265.109375 340.875 269.421875 335.777344 C 277.617188 326.082031 282.433594 319.257812 286.316406 306.835938 C 288.113281 301.164062 288.183594 299.226562 288.183594 293.265625 C 303.785156 289.675781 315.144531 284.433594 327.21875 273.660156 C 350.367188 252.910156 362.730469 218.941406 353.242188 188.640625 C 351.15625 181.890625 347.707031 174.492188 343.609375 168.75 C 337.140625 159.84375 336.707031 160.347656 329.664062 153.238281 C 332.96875 144.335938 334.695312 139.378906 335.628906 129.757812 C 336.492188 120.925781 335.34375 111.519531 333.113281 102.972656 C 329.808594 90.335938 321.253906 74.25 311.835938 65.128906 C 300.476562 54.144531 291.132812 47.035156 275.460938 42.292969 C 262.738281 38.417969 249.367188 38.199219 236.425781 41.433594 C 234.628906 41.863281 232.402344 42.367188 230.75 43.15625 C 229.023438 43.945312 227.65625 44.949219 225.859375 45.742188 C 219.535156 38.703125 219.679688 37.269531 210.691406 30.445312 C 204.726562 25.851562 197.96875 22.332031 190.921875 19.746094 C 160.660156 8.472656 121.480469 16.15625 99.339844 40.140625 C 91.648438 48.46875 85.96875 58.09375 82.589844 69.007812 C 80.792969 74.824219 80.792969 76.546875 80.792969 82.578125 C 63.972656 85.234375 44.5625 97.011719 33.851562 110.226562 C 16.816406 131.265625 7.398438 159.125 15.164062 185.550781 Z M 15.164062 185.550781 " fill-opacity="1" fill-rule="evenodd"/></svg>