<svg xmlns="http://www.w3.org/2000/svg" xmlns:xlink="http://www.w3.org/1999/xlink" width="500" zoomAndPan="magnify" viewBox="0 0 375 374.999991" height="500" preserveAspectRatio="xMidYMid meet" version="1.0"><defs><g/></defs><g fill="#9f3f73" fill-opacity="1"><g transform="translate(12.297616, 249.918689)"><g><path d="M 37.585938 1.25 C 46.449219 1.25 53.941406 -1.25 60.0625 -6.242188 C 66.179688 -11.238281 69.300781 -17.855469 69.300781 -26.222656 C 69.300781 -30.84375 68.425781 -34.964844 66.929688 -38.460938 C 65.304688 -41.957031 63.183594 -44.703125 60.6875 -46.699219 C 58.0625 -48.699219 55.191406 -50.570312 52.195312 -52.070312 C 49.074219 -53.566406 45.953125 -54.816406 42.953125 -55.816406 C 39.832031 -56.816406 36.960938 -57.9375 34.464844 -59.0625 C 31.839844 -60.0625 29.71875 -61.433594 28.21875 -63.183594 C 26.597656 -64.804688 25.847656 -66.804688 25.847656 -69.050781 C 25.847656 -71.921875 26.722656 -74.171875 28.71875 -75.667969 C 30.59375 -77.167969 33.089844 -77.917969 36.085938 -77.917969 C 41.582031 -77.917969 46.824219 -75.171875 51.570312 -69.800781 L 64.429688 -81.789062 C 60.933594 -85.785156 56.816406 -88.90625 51.820312 -91.277344 C 46.824219 -93.652344 41.582031 -94.898438 36.085938 -94.898438 C 28.09375 -94.898438 21.226562 -92.527344 15.484375 -87.78125 C 9.738281 -83.035156 6.867188 -76.292969 6.867188 -67.804688 C 6.867188 -61.933594 8.367188 -57.0625 11.363281 -53.195312 C 14.359375 -49.199219 17.980469 -46.324219 22.226562 -44.453125 C 26.472656 -42.578125 30.84375 -40.957031 35.085938 -39.457031 C 39.332031 -37.960938 42.953125 -36.210938 45.953125 -34.214844 C 48.949219 -32.089844 50.445312 -29.46875 50.445312 -26.347656 C 50.445312 -23.351562 49.199219 -20.976562 46.949219 -19.230469 C 44.703125 -17.480469 41.582031 -16.730469 37.710938 -16.730469 C 33.339844 -16.730469 29.46875 -17.855469 26.222656 -20.105469 C 22.851562 -22.351562 20.351562 -25.347656 18.730469 -29.21875 L 2.871094 -19.355469 C 5.867188 -13.234375 10.363281 -8.242188 16.605469 -4.496094 C 22.851562 -0.625 29.84375 1.25 37.585938 1.25 Z M 37.585938 1.25 "/></g></g></g><g fill="#9f3f73" fill-opacity="1"><g transform="translate(85.217762, 249.918689)"><g><path d="M 54.191406 1.25 C 67.429688 1.25 78.792969 -3.371094 88.15625 -12.738281 C 97.523438 -22.101562 102.265625 -33.464844 102.265625 -46.824219 C 102.265625 -60.0625 97.523438 -71.425781 88.15625 -80.789062 C 78.792969 -90.15625 67.429688 -94.898438 54.191406 -94.898438 C 40.832031 -94.898438 29.46875 -90.15625 20.105469 -80.789062 C 10.738281 -71.425781 6.117188 -60.0625 6.117188 -46.824219 C 6.117188 -33.464844 10.738281 -22.101562 20.105469 -12.738281 C 29.46875 -3.371094 40.832031 1.25 54.191406 1.25 Z M 54.191406 -17.855469 C 45.953125 -17.855469 39.082031 -20.601562 33.589844 -26.222656 C 27.96875 -31.714844 25.222656 -38.585938 25.222656 -46.824219 C 25.222656 -54.941406 27.96875 -61.808594 33.589844 -67.429688 C 39.082031 -72.921875 45.953125 -75.792969 54.191406 -75.792969 C 62.308594 -75.792969 69.175781 -72.921875 74.796875 -67.429688 C 80.289062 -61.808594 83.160156 -54.941406 83.160156 -46.824219 C 83.160156 -38.585938 80.289062 -31.714844 74.796875 -26.222656 C 69.175781 -20.601562 62.308594 -17.855469 54.191406 -17.855469 Z M 54.191406 -17.855469 "/></g></g></g><g fill="#9f3f73" fill-opacity="1"><g transform="translate(193.599072, 249.918689)"><g><path d="M 57.0625 -38.957031 C 62.683594 -40.457031 67.304688 -43.703125 70.925781 -48.449219 C 74.546875 -53.195312 76.417969 -58.8125 76.417969 -65.179688 C 76.417969 -73.171875 73.671875 -79.914062 68.425781 -85.410156 C 63.058594 -90.902344 56.441406 -93.652344 48.574219 -93.652344 L 9.488281 -93.652344 L 9.488281 0 L 28.96875 0 L 28.96875 -36.960938 L 37.835938 -36.960938 L 61.058594 0 L 83.535156 0 Z M 45.828125 -53.070312 L 28.96875 -53.070312 L 28.96875 -76.292969 L 45.828125 -76.292969 C 49.199219 -76.292969 52.070312 -75.171875 54.316406 -72.921875 C 56.566406 -70.675781 57.6875 -67.929688 57.6875 -64.679688 C 57.6875 -61.308594 56.566406 -58.5625 54.316406 -56.316406 C 52.070312 -54.066406 49.199219 -53.070312 45.828125 -53.070312 Z M 45.828125 -53.070312 "/></g></g></g><g fill="#9f3f73" fill-opacity="1"><g transform="translate(277.132606, 249.918689)"><g><path d="M 75.046875 0 L 96.148438 0 L 58.5625 -93.652344 L 36.710938 -93.652344 L -0.875 0 L 20.230469 0 L 26.972656 -18.105469 L 68.300781 -18.105469 Z M 33.089844 -34.464844 L 47.699219 -73.671875 L 62.308594 -34.464844 Z M 33.089844 -34.464844 "/></g></g></g><path stroke-linecap="butt" transform="matrix(0.75, 0, 0, 0.75, 0.0000045, 131.062491)" fill="none" stroke-linejoin="miter" d="M 60.041665 153.666688 C 71.86979 153.666688 81.828124 150.333355 89.994792 143.666688 C 98.166667 137.00002 102.312501 128.182312 102.312501 117.041686 C 102.312501 110.864602 101.171876 105.380227 99.140626 100.703143 C 96.989584 96.067726 94.182292 92.411476 90.848958 89.729184 C 87.354166 87.088559 83.494791 84.567725 79.510416 82.572934 C 75.364582 80.58335 71.177082 78.916683 67.192707 77.572933 C 63.046873 76.234391 59.187498 74.729183 55.854164 73.265641 C 52.359372 71.9271 49.552081 70.093766 47.562497 67.739599 C 45.36458 65.583349 44.390622 62.942724 44.390622 59.932307 C 44.390622 56.114598 45.567705 53.104182 48.213539 51.114598 C 50.729164 49.125015 54.026039 48.104181 58.046873 48.104181 C 65.364582 48.104181 72.354165 51.76564 78.697916 58.916682 L 95.848959 42.942723 C 91.177083 37.619806 85.6875 33.473972 79.020833 30.302097 C 72.354165 27.130222 65.364582 25.463555 58.046873 25.463555 C 47.39583 25.463555 38.213538 28.63543 30.572913 34.97918 C 22.890621 41.276056 19.067704 50.260431 19.067704 61.598974 C 19.067704 69.406266 21.057287 75.906266 25.083329 81.072933 C 29.067704 86.39585 33.901038 90.218767 39.55208 92.734393 C 45.203122 95.218768 51.057289 97.411476 56.708331 99.40106 C 62.354165 101.395851 67.192707 103.71356 71.177082 106.395852 C 75.203124 109.197935 77.192707 112.692727 77.192707 116.880227 C 77.192707 120.864603 75.526041 124.036478 72.515624 126.354186 C 69.510415 128.708353 65.364582 129.682312 60.203123 129.682312 C 54.390623 129.682312 49.229164 128.182312 44.880205 125.213561 C 40.406247 122.208353 37.072913 118.223978 34.880205 113.062519 L 13.744787 126.18752 C 17.76562 134.359395 23.739579 141.026062 32.072913 146.026063 C 40.406247 151.187521 49.713539 153.666688 60.041665 153.666688 Z M 179.416672 153.666688 C 197.057299 153.666688 212.218758 147.489604 224.697925 135.010437 C 237.177093 122.53127 243.520843 107.36981 243.520843 89.567726 C 243.520843 71.9271 237.177093 56.76564 224.697925 44.286473 C 212.218758 31.807305 197.057299 25.463555 179.416672 25.463555 C 161.572921 25.463555 146.453129 31.807305 133.937503 44.286473 C 121.458335 56.76564 115.31771 71.9271 115.31771 89.567726 C 115.31771 107.36981 121.458335 122.53127 133.937503 135.010437 C 146.453129 147.489604 161.572921 153.666688 179.416672 153.666688 Z M 179.416672 128.182312 C 168.406255 128.182312 159.260421 124.520853 151.942712 117.041686 C 144.463545 109.729185 140.765628 100.541685 140.765628 89.567726 C 140.765628 78.755225 144.463545 69.567724 151.942712 62.088557 C 159.260421 54.770848 168.406255 50.95314 179.416672 50.95314 C 190.229173 50.95314 199.375007 54.770848 206.854174 62.088557 C 214.21355 69.567724 218.031258 78.755225 218.031258 89.567726 C 218.031258 100.541685 214.21355 109.729185 206.854174 117.041686 C 199.375007 124.520853 190.229173 128.182312 179.416672 128.182312 Z M 327.750016 100.052101 C 335.229183 98.062518 341.406266 93.713559 346.244808 87.411476 C 351.036475 81.072933 353.557309 73.593766 353.557309 65.098974 C 353.557309 54.447932 349.901059 45.463556 342.911475 38.109389 C 335.713558 30.79168 326.895849 27.130222 316.406265 27.130222 L 264.296886 27.130222 L 264.296886 152.000021 L 290.270846 152.000021 L 290.270846 102.734393 L 302.098972 102.734393 L 333.072933 152.000021 L 363.031268 152.000021 Z M 312.750015 81.234392 L 290.270846 81.234392 L 290.270846 50.260431 L 312.750015 50.260431 C 317.260432 50.260431 321.083348 51.76564 324.088557 54.770848 C 327.057307 57.781265 328.562516 61.437516 328.562516 65.744807 C 328.562516 70.260433 327.057307 73.916683 324.088557 76.9271 C 321.083348 79.890642 317.260432 81.234392 312.750015 81.234392 Z M 463.109399 152.000021 L 491.234401 152.000021 L 441.119815 27.130222 L 411.973979 27.130222 L 361.854184 152.000021 L 390.026061 152.000021 L 399.005229 127.854187 L 454.125024 127.854187 Z M 407.135437 106.067727 L 426.645855 53.755223 L 446.119815 106.067727 Z M 407.135437 106.067727 " stroke="#8c52ff" stroke-width="6.243375" stroke-opacity="1" stroke-miterlimit="4"/></svg>